# xmcd
#
# Track frame offsets:
#	182
#	13402
#	25355
#	40852
#	53445
#	63835
#	77465
#	86717
#	97040
#	109240
#	122635
#	139405
#	151042
#	161145
#	173600
#	183482
#	194892
#	209942
#	221872
#	236147
#
# Disc length: 3293 seconds
#
# Revision: 0
# Processed by: cddbd v1.5.1PL2 Copyright (c) Steve Scherf et al.
# Submitted via: dBpowerAMP V4.0
#
DISCID=270cdb14
DTITLE=Various Artist - Country Greats - Vol.II
DYEAR=1995
DGENRE=Country
TTITLE0=Crystal Gayle - Talking In Your Sleep
TTITLE1=Roger Miller - Little Green Apples
TTITLE2=Jo Anne Houston - Always On My Mind
TTITLE3=Kenny Rogers - Reuben James
TTITLE4=Don Gibson - Lonesome Number One
TTITLE5=Jimmy Dean - Big Bad John
TTITLE6=The Kendalls - Blue, Blue Day
TTITLE7=Ferlin Husky - Six Days On The Road
TTITLE8=Billie Jo Spears - You Never Can Tell (C'est La Vie)
TTITLE9=Johny Russell - Catfish John
TTITLE10=Johny Cash - City Of New Orleans
TTITLE11=Patsy Cline - In Care Of The Blues
TTITLE12=Porter Wagoner - Green, Green Grass Of Home
TTITLE13=The Kendalls - Pick Me Up On Your Way Down
TTITLE14=Hank Locklin - Please Help Me I'm Falling
TTITLE15=Geoge Jones - Talk Back Trembling Lips
TTITLE16=Lynn Anderson - Desperado
TTITLE17=Anne Murray - The Last Thing On My Mind
TTITLE18=Jo Anne Houston - Loving Him Was Easier
TTITLE19=Carl Perkins - Manphis Tennessee
EXTD=
EXTT0=
EXTT1=
EXTT2=
EXTT3=
EXTT4=
EXTT5=
EXTT6=
EXTT7=
EXTT8=
EXTT9=
EXTT10=
EXTT11=
EXTT12=
EXTT13=
EXTT14=
EXTT15=
EXTT16=
EXTT17=
EXTT18=
EXTT19=
PLAYORDER=
